<svg width="38" height="38" viewBox="0 0 38 38" fill="none" xmlns="http://www.w3.org/2000/svg">
<path d="M10.925 9.18335C9.975 9.18335 9.34167 9.81668 9.34167 10.7667C9.34167 11.7167 9.975 12.35 10.925 12.35V9.18335ZM27.7083 29.2917C27.7083 30.2417 28.3417 30.875 29.2917 30.875C30.2417 30.875 30.875 30.2417 30.875 29.2917H27.7083ZM27.55 9.18335H10.925V12.35H27.55V9.18335ZM30.875 12.6667C30.875 10.7667 29.2917 9.18335 27.3917 9.18335V12.35C27.55 12.35 27.7083 12.5083 27.7083 12.6667H30.875ZM30.875 29.2917V12.6667H27.7083V29.2917H30.875Z" fill="black"/>
<path d="M29.1333 13.4583C29.7667 12.825 29.7667 11.875 29.1333 11.2417C28.5 10.6083 27.55 10.6083 26.9167 11.2417L29.1333 13.4583ZM10.2917 27.8667C9.65833 28.5 9.65833 29.45 10.2917 30.0833C10.925 30.7167 11.875 30.7167 12.5083 30.0833L10.2917 27.8667ZM26.9167 11.2417L10.2917 27.8667L12.5083 30.0833L29.1333 13.4583L26.9167 11.2417Z" fill="black"/>
</svg>
