<svg width="157" height="410" viewBox="0 0 157 410" fill="none" xmlns="http://www.w3.org/2000/svg">
<path d="M212.387 224.787C203.742 224.787 199.796 212.669 196.225 201.732C192.466 190.501 189.835 183.407 184.949 183.407C180.062 183.407 177.619 190.205 173.673 201.732C170.102 212.669 166.155 224.787 157.51 224.787C148.865 224.787 144.73 212.373 141.347 201.732C137.589 190.501 134.958 183.407 130.071 183.407C125.185 183.407 122.742 190.205 118.795 201.732C115.224 212.669 111.278 224.787 102.633 224.787C93.9875 224.787 90.0408 212.669 86.47 201.732C82.7113 190.501 80.0802 183.407 75.1938 183.407C70.3075 183.407 67.8643 190.205 63.9176 201.732C60.3468 212.669 56.4002 224.787 47.7551 224.787C39.11 224.787 35.1633 212.669 31.5925 201.732C27.8338 190.501 25.2027 183.407 20.3163 183.407C18.8128 183.407 17.4973 181.338 17.4973 178.974C17.4973 176.609 18.8128 174.54 20.3163 174.54C28.9614 174.54 32.9081 186.658 36.4789 197.595C40.2376 208.826 42.8687 215.92 47.7551 215.92C52.6414 215.92 55.0846 209.122 59.0313 197.595C62.6021 186.658 66.5487 174.54 75.1938 174.54C83.8389 174.54 87.7856 186.658 91.3564 197.595C95.1151 208.826 97.7462 215.92 102.633 215.92C107.519 215.92 109.962 209.122 113.909 197.595C117.48 186.658 121.426 174.54 130.071 174.54C138.716 174.54 142.663 186.658 146.234 197.595C149.993 208.826 152.624 215.92 157.51 215.92C162.396 215.92 164.84 209.122 168.786 197.595C172.357 186.658 176.304 174.54 184.949 174.54C193.594 174.54 197.541 186.658 201.111 197.595C204.87 208.826 207.501 215.92 212.387 215.92C217.274 215.92 219.717 209.122 223.664 197.595C227.234 186.658 231.181 174.54 239.826 174.54C241.33 174.54 242.645 176.609 242.645 178.974C242.645 181.338 241.33 183.407 239.826 183.407C234.94 183.407 232.497 190.205 228.55 201.732C224.791 212.373 220.845 224.491 212.387 224.787Z" fill="#5EBBC3"/>
<path d="M212.388 271.487C203.742 271.487 199.796 259.369 196.225 248.433C192.466 237.201 189.835 230.107 184.949 230.107C180.062 230.107 177.619 236.905 173.673 248.433C170.102 259.369 166.155 271.487 157.51 271.487C148.865 271.487 144.918 259.369 141.347 248.433C137.589 237.201 134.958 230.107 130.071 230.107C125.185 230.107 122.742 236.905 118.795 248.433C115.224 259.369 111.278 271.487 102.633 271.487C93.9875 271.487 90.0408 259.369 86.47 248.433C82.7113 237.201 80.0802 230.107 75.1938 230.107C70.3075 230.107 67.8643 236.905 63.9176 248.433C60.3468 259.369 56.4002 271.487 47.7551 271.487C39.11 271.487 35.1633 259.369 31.5925 248.432C27.8338 237.201 25.2027 230.107 20.3163 230.107C18.8129 230.107 17.4973 228.038 17.4973 225.674C17.4973 223.309 18.8129 221.24 20.3163 221.24C28.9614 221.24 32.9081 233.358 36.4789 244.295C40.2376 255.526 42.8687 262.62 47.7551 262.62C52.6414 262.62 55.0846 255.822 59.0313 244.295C62.6021 233.359 66.5487 221.24 75.1938 221.24C83.8389 221.24 87.7856 233.359 91.3564 244.295C95.1151 255.526 97.7462 262.62 102.633 262.62C107.519 262.62 109.962 255.822 113.909 244.295C117.48 233.359 121.426 221.24 130.071 221.24C138.716 221.24 142.663 233.359 146.234 244.295C149.993 255.526 152.624 262.62 157.51 262.62C162.396 262.62 164.84 255.822 168.786 244.295C172.357 233.359 176.304 221.24 184.949 221.24C193.594 221.24 197.541 233.359 201.111 244.295C204.87 255.526 207.501 262.62 212.388 262.62C217.274 262.62 219.717 255.822 223.664 244.295C227.234 233.359 231.181 221.24 239.826 221.24C241.33 221.24 242.645 223.309 242.645 225.674C242.645 228.038 241.33 230.107 239.826 230.107C234.94 230.107 232.497 236.905 228.55 248.433C224.979 259.369 220.845 271.191 212.388 271.487Z" fill="#5EBBC3"/>
</svg>
