<svg width="288" height="555" viewBox="0 0 288 555" fill="none" xmlns="http://www.w3.org/2000/svg">
<g opacity="0.5" clip-path="url(#clip0_0_155)">
<path d="M-2.30821 541.563C-0.849505 540.242 -0.849482 538.101 -2.30818 536.78C-3.76688 535.46 -6.13189 535.46 -7.59059 536.78C-9.0493 538.101 -9.04932 540.242 -7.59062 541.563C-6.13192 542.884 -3.76691 542.884 -2.30821 541.563Z" fill="#FFC2C3"/>
<path d="M11.4808 529.149C12.9395 527.828 12.9395 525.687 11.4808 524.366C10.0221 523.045 7.65711 523.045 6.19841 524.366C4.73971 525.687 4.73968 527.828 6.19838 529.149C7.65709 530.469 10.0221 530.469 11.4808 529.149Z" fill="#FFC2C3"/>
<path d="M24.956 516.534C26.4147 515.213 26.4147 513.072 24.956 511.751C23.4973 510.431 21.1322 510.431 19.6735 511.751C18.2148 513.072 18.2149 515.213 19.6736 516.534C21.1323 517.855 23.4973 517.855 24.956 516.534Z" fill="#FFC2C3"/>
<path d="M6.37462 499.409C7.83332 498.089 7.83334 495.947 6.37464 494.627C4.91594 493.306 2.55088 493.306 1.09218 494.627C-0.366518 495.947 -0.366473 498.089 1.09223 499.409C2.55093 500.73 4.91592 500.73 6.37462 499.409Z" fill="#FFC2C3"/>
<path d="M38.7262 504.186C40.1849 502.865 40.1849 500.724 38.7262 499.403C37.2675 498.082 34.9025 498.082 33.4438 499.403C31.9851 500.724 31.9851 502.865 33.4438 504.186C34.9025 505.506 37.2675 505.506 38.7262 504.186Z" fill="#FFC2C3"/>
<path d="M20.1441 487.06C21.6028 485.74 21.6028 483.598 20.1441 482.278C18.6854 480.957 16.3204 480.957 14.8617 482.278C13.403 483.598 13.403 485.74 14.8617 487.06C16.3204 488.381 18.6854 488.381 20.1441 487.06Z" fill="#FFC2C3"/>
<path d="M0.965093 469.976C2.42379 468.655 2.42379 466.514 0.965093 465.194C-0.493608 463.873 -2.85864 463.873 -4.31734 465.194C-5.77604 466.514 -5.77604 468.655 -4.31734 469.976C-2.85864 471.297 -0.493608 471.297 0.965093 469.976Z" fill="#FFC2C3"/>
<path d="M52.8041 491.506C54.2628 490.186 54.2628 488.044 52.8041 486.724C51.3454 485.403 48.9804 485.403 47.5217 486.724C46.063 488.044 46.063 490.186 47.5217 491.506C48.9804 492.827 51.3454 492.827 52.8041 491.506Z" fill="#FFC2C3"/>
<path d="M33.6256 474.424C35.0843 473.103 35.0842 470.962 33.6255 469.642C32.1668 468.321 29.8018 468.321 28.3431 469.642C26.8844 470.962 26.8844 473.103 28.3431 474.424C29.8018 475.745 32.1669 475.745 33.6256 474.424Z" fill="#FFC2C3"/>
<path d="M15.0393 457.319C16.498 455.999 16.4979 453.858 15.0392 452.537C13.5805 451.216 11.2155 451.216 9.75682 452.537C8.29812 453.858 8.29812 455.999 9.75682 457.319C11.2155 458.64 13.5805 458.64 15.0393 457.319Z" fill="#FFC2C3"/>
<path d="M66.5786 479.136C68.0373 477.815 68.0373 475.674 66.5786 474.353C65.1199 473.033 62.7549 473.033 61.2962 474.353C59.8375 475.674 59.8375 477.815 61.2962 479.136C62.7549 480.457 65.1199 480.457 66.5786 479.136Z" fill="#FFC2C3"/>
<path d="M47.4007 462.054C48.8594 460.733 48.8595 458.592 47.4008 457.271C45.9421 455.951 43.577 455.951 42.1183 457.271C40.6596 458.592 40.6596 460.733 42.1183 462.054C43.577 463.375 45.942 463.375 47.4007 462.054Z" fill="#FFC2C3"/>
<path d="M28.8178 444.93C30.2765 443.609 30.2765 441.468 28.8178 440.147C27.3591 438.826 24.9941 438.826 23.5354 440.147C22.0767 441.468 22.0767 443.609 23.5354 444.93C24.9941 446.25 27.3591 446.25 28.8178 444.93Z" fill="#FFC2C3"/>
<path d="M9.63627 427.865C11.095 426.544 11.095 424.403 9.63627 423.082C8.17757 421.761 5.81256 421.762 4.35386 423.082C2.89516 424.403 2.89514 426.544 4.35384 427.865C5.81254 429.185 8.17757 429.185 9.63627 427.865Z" fill="#FFC2C3"/>
<path d="M80.3469 466.81C81.8056 465.489 81.8056 463.348 80.3469 462.027C78.8882 460.707 76.5231 460.707 75.0644 462.027C73.6057 463.348 73.6057 465.489 75.0644 466.81C76.5231 468.131 78.8882 468.131 80.3469 466.81Z" fill="#FFC2C3"/>
<path d="M61.4695 449.419C62.9283 448.098 62.9283 445.957 61.4695 444.636C60.0108 443.315 57.6458 443.315 56.1871 444.636C54.7284 445.957 54.7284 448.098 56.1871 449.419C57.6458 450.739 60.0108 450.739 61.4695 449.419Z" fill="#FFC2C3"/>
<path d="M42.586 432.6C44.0447 431.279 44.0447 429.138 42.586 427.817C41.1273 426.496 38.7623 426.496 37.3036 427.817C35.8449 429.138 35.8449 431.279 37.3036 432.6C38.7623 433.92 41.1273 433.92 42.586 432.6Z" fill="#FFC2C3"/>
<path d="M23.4124 415.494C24.8711 414.174 24.8711 412.033 23.4124 410.712C21.9537 409.391 19.5887 409.391 18.13 410.712C16.6713 412.033 16.6713 414.174 18.13 415.494C19.5887 416.815 21.9537 416.815 23.4124 415.494Z" fill="#FFC2C3"/>
<path d="M4.53508 398.105C5.99378 396.785 5.99378 394.643 4.53508 393.323C3.07638 392.002 0.711368 392.002 -0.747333 393.323C-2.20603 394.643 -2.20603 396.785 -0.747333 398.105C0.711368 399.426 3.07638 399.426 4.53508 398.105Z" fill="#FFC2C3"/>
<path d="M93.8295 454.175C95.2882 452.854 95.2881 450.713 93.8294 449.392C92.3707 448.071 90.0057 448.071 88.547 449.392C87.0883 450.713 87.0883 452.854 88.547 454.175C90.0057 455.495 92.3707 455.495 93.8295 454.175Z" fill="#FFC2C3"/>
<path d="M75.2424 437.069C76.7011 435.748 76.701 433.607 75.2423 432.286C73.7836 430.966 71.4186 430.966 69.9599 432.286C68.5012 433.607 68.5012 435.748 69.9599 437.069C71.4186 438.39 73.7837 438.39 75.2424 437.069Z" fill="#FFC2C3"/>
<path d="M56.0707 419.944C57.5294 418.623 57.5294 416.482 56.0707 415.161C54.612 413.84 52.247 413.84 50.7883 415.161C49.3296 416.482 49.3296 418.623 50.7883 419.944C52.247 421.264 54.612 421.264 56.0707 419.944Z" fill="#FFC2C3"/>
<path d="M37.4861 402.82C38.9448 401.499 38.9448 399.358 37.4861 398.037C36.0274 396.716 33.6623 396.716 32.2036 398.037C30.7449 399.358 30.745 401.499 32.2037 402.82C33.6624 404.14 36.0274 404.14 37.4861 402.82Z" fill="#FFC2C3"/>
<path d="M18.31 385.735C19.7687 384.414 19.7687 382.273 18.31 380.952C16.8513 379.632 14.4863 379.632 13.0276 380.952C11.5689 382.273 11.5689 384.414 13.0276 385.735C14.4863 387.056 16.8513 387.056 18.31 385.735Z" fill="#FFC2C3"/>
<path d="M-0.274714 368.613C1.18399 367.293 1.18399 365.152 -0.274714 363.831C-1.73342 362.51 -4.09845 362.51 -5.55715 363.831C-7.01585 365.152 -7.01585 367.293 -5.55715 368.613C-4.09845 369.934 -1.73342 369.934 -0.274714 368.613Z" fill="#FFC2C3"/>
<path d="M107.608 441.761C109.067 440.44 109.067 438.299 107.608 436.978C106.149 435.657 103.784 435.657 102.326 436.978C100.867 438.299 100.867 440.44 102.326 441.761C103.784 443.081 106.149 443.081 107.608 441.761Z" fill="#FFC2C3"/>
<path d="M89.0197 424.677C90.4784 423.357 90.4784 421.215 89.0197 419.895C87.561 418.574 85.196 418.574 83.7373 419.895C82.2786 421.215 82.2786 423.357 83.7373 424.677C85.196 425.998 87.561 425.998 89.0197 424.677Z" fill="#FFC2C3"/>
<path d="M69.8477 407.553C71.3064 406.232 71.3064 404.091 69.8477 402.77C68.389 401.45 66.024 401.45 64.5653 402.77C63.1066 404.091 63.1066 406.232 64.5653 407.553C66.024 408.874 68.389 408.874 69.8477 407.553Z" fill="#FFC2C3"/>
<path d="M51.2588 390.469C52.7175 389.148 52.7176 387.007 51.2589 385.686C49.8002 384.366 47.4351 384.366 45.9764 385.686C44.5177 387.007 44.5177 389.148 45.9764 390.469C47.4351 391.79 49.8001 391.79 51.2588 390.469Z" fill="#FFC2C3"/>
<path d="M32.0852 373.365C33.544 372.044 33.544 369.903 32.0852 368.582C30.6265 367.261 28.2615 367.261 26.8028 368.582C25.3441 369.903 25.3441 372.044 26.8028 373.365C28.2615 374.685 30.6265 374.685 32.0852 373.365Z" fill="#FFC2C3"/>
<path d="M13.4981 356.261C14.9568 354.94 14.9568 352.799 13.4981 351.479C12.0394 350.158 9.67438 350.158 8.21568 351.479C6.75698 352.799 6.75696 354.94 8.21566 356.261C9.67436 357.582 12.0394 357.582 13.4981 356.261Z" fill="#FFC2C3"/>
<path d="M121.676 429.146C123.134 427.825 123.134 425.684 121.676 424.363C120.217 423.042 117.852 423.042 116.393 424.363C114.934 425.684 114.934 427.825 116.393 429.146C117.852 430.466 120.217 430.466 121.676 429.146Z" fill="#FFC2C3"/>
<path d="M102.502 412.02C103.961 410.7 103.961 408.558 102.502 407.238C101.044 405.917 98.6786 405.917 97.2199 407.238C95.7612 408.558 95.7612 410.7 97.2199 412.02C98.6786 413.341 101.044 413.341 102.502 412.02Z" fill="#FFC2C3"/>
<path d="M83.9147 394.937C85.3734 393.617 85.3734 391.475 83.9147 390.155C82.456 388.834 80.091 388.834 78.6323 390.155C77.1736 391.475 77.1736 393.617 78.6323 394.937C80.091 396.258 82.456 396.258 83.9147 394.937Z" fill="#FFC2C3"/>
<path d="M64.7398 377.852C66.1985 376.532 66.1985 374.39 64.7398 373.07C63.2811 371.749 60.9161 371.749 59.4574 373.07C57.9987 374.39 57.9987 376.532 59.4574 377.852C60.9161 379.173 63.2811 379.173 64.7398 377.852Z" fill="#FFC2C3"/>
<path d="M46.154 360.728C47.6127 359.407 47.6127 357.266 46.154 355.945C44.6953 354.625 42.3303 354.625 40.8716 355.945C39.4129 357.266 39.4129 359.407 40.8716 360.728C42.3303 362.049 44.6953 362.049 46.154 360.728Z" fill="#FFC2C3"/>
<path d="M26.9795 343.625C28.4382 342.304 28.4382 340.163 26.9795 338.842C25.5208 337.522 23.1558 337.522 21.6971 338.842C20.2384 340.163 20.2384 342.304 21.6971 343.625C23.1558 344.946 25.5208 344.946 26.9795 343.625Z" fill="#FFC2C3"/>
<path d="M8.09843 326.803C9.55713 325.482 9.55716 323.341 8.09846 322.02C6.63975 320.7 4.27472 320.7 2.81602 322.02C1.35732 323.341 1.35732 325.482 2.81602 326.803C4.27472 328.123 6.63973 328.123 8.09843 326.803Z" fill="#FFC2C3"/>
<path d="M135.451 416.797C136.91 415.477 136.91 413.336 135.451 412.015C133.992 410.694 131.627 410.694 130.168 412.015C128.71 413.335 128.71 415.477 130.168 416.797C131.627 418.118 133.992 418.118 135.451 416.797Z" fill="#FFC2C3"/>
<path d="M116.276 399.692C117.735 398.372 117.735 396.23 116.276 394.91C114.818 393.589 112.453 393.589 110.994 394.91C109.535 396.23 109.535 398.372 110.994 399.692C112.453 401.013 114.818 401.013 116.276 399.692Z" fill="#FFC2C3"/>
<path d="M97.6896 382.567C99.1483 381.246 99.1483 379.105 97.6896 377.784C96.2309 376.464 93.8659 376.464 92.4072 377.784C90.9485 379.105 90.9485 381.246 92.4072 382.567C93.8659 383.888 96.2309 383.888 97.6896 382.567Z" fill="#FFC2C3"/>
<path d="M78.5156 365.443C79.9743 364.123 79.9743 361.981 78.5156 360.661C77.0569 359.34 74.6918 359.34 73.2331 360.661C71.7744 361.981 71.7744 364.123 73.2331 365.443C74.6918 366.764 77.0569 366.764 78.5156 365.443Z" fill="#FFC2C3"/>
<path d="M59.9288 348.358C61.3875 347.037 61.3875 344.896 59.9288 343.575C58.4701 342.254 56.1051 342.254 54.6464 343.575C53.1877 344.896 53.1877 347.037 54.6464 348.358C56.1051 349.678 58.4701 349.678 59.9288 348.358Z" fill="#FFC2C3"/>
<path d="M40.7552 331.254C42.2139 329.934 42.2139 327.793 40.7552 326.472C39.2965 325.151 36.9315 325.151 35.4728 326.472C34.0141 327.793 34.0141 329.934 35.4728 331.254C36.9315 332.575 39.2965 332.575 40.7552 331.254Z" fill="#FFC2C3"/>
<path d="M22.168 314.15C23.6267 312.83 23.6267 310.688 22.168 309.368C20.7093 308.047 18.3443 308.047 16.8856 309.368C15.4269 310.688 15.4269 312.83 16.8856 314.15C18.3443 315.471 20.7093 315.471 22.168 314.15Z" fill="#FFC2C3"/>
<path d="M2.99433 297.03C4.45303 295.71 4.45303 293.569 2.99433 292.248C1.53563 290.927 -0.829403 290.927 -2.2881 292.248C-3.74681 293.569 -3.74681 295.71 -2.2881 297.03C-0.829403 298.351 1.53563 298.351 2.99433 297.03Z" fill="#FFC2C3"/>
<path d="M149.225 404.383C150.684 403.062 150.684 400.921 149.225 399.6C147.766 398.279 145.401 398.279 143.942 399.6C142.484 400.921 142.484 403.062 143.942 404.383C145.401 405.703 147.766 405.703 149.225 404.383Z" fill="#FFC2C3"/>
<path d="M130.052 387.301C131.51 385.98 131.51 383.839 130.052 382.518C128.593 381.197 126.228 381.197 124.769 382.518C123.311 383.839 123.311 385.98 124.769 387.301C126.228 388.621 128.593 388.621 130.052 387.301Z" fill="#FFC2C3"/>
<path d="M111.465 370.197C112.924 368.876 112.924 366.735 111.465 365.414C110.006 364.093 107.641 364.093 106.182 365.414C104.724 366.735 104.724 368.876 106.182 370.197C107.641 371.517 110.006 371.517 111.465 370.197Z" fill="#FFC2C3"/>
<path d="M92.2908 353.092C93.7495 351.771 93.7495 349.63 92.2908 348.309C90.8321 346.988 88.4671 346.988 87.0084 348.309C85.5497 349.63 85.5497 351.771 87.0084 353.092C88.4671 354.412 90.8321 354.412 92.2908 353.092Z" fill="#FFC2C3"/>
<path d="M73.7049 336.007C75.1636 334.686 75.1637 332.545 73.705 331.224C72.2463 329.904 69.8812 329.904 68.4225 331.224C66.9638 332.545 66.9638 334.686 68.4225 336.007C69.8812 337.328 72.2462 337.328 73.7049 336.007Z" fill="#FFC2C3"/>
<path d="M54.5308 318.902C55.9895 317.581 55.9895 315.44 54.5308 314.119C53.0721 312.799 50.7071 312.799 49.2484 314.119C47.7897 315.44 47.7897 317.581 49.2484 318.902C50.7071 320.223 53.0721 320.223 54.5308 318.902Z" fill="#FFC2C3"/>
<path d="M35.649 301.498C37.1077 300.178 37.1077 298.037 35.649 296.716C34.1903 295.395 31.8253 295.395 30.3666 296.716C28.9079 298.036 28.9079 300.178 30.3666 301.498C31.8253 302.819 34.1903 302.819 35.649 301.498Z" fill="#FFC2C3"/>
<path d="M16.7692 284.676C18.2279 283.355 18.2279 281.214 16.7692 279.893C15.3105 278.572 12.9455 278.572 11.4868 279.893C10.0281 281.214 10.0281 283.355 11.4868 284.676C12.9455 285.996 15.3105 285.996 16.7692 284.676Z" fill="#FFC2C3"/>
<path d="M-2.11183 267.291C-0.653132 265.97 -0.653132 263.829 -2.11183 262.508C-3.57053 261.188 -5.93557 261.188 -7.39427 262.508C-8.85297 263.829 -8.85295 265.97 -7.39424 267.291C-5.93554 268.612 -3.57053 268.612 -2.11183 267.291Z" fill="#FFC2C3"/>
<path d="M162.707 391.769C164.166 390.448 164.166 388.307 162.707 386.986C161.249 385.666 158.884 385.666 157.425 386.986C155.966 388.307 155.966 390.448 157.425 391.769C158.884 393.09 161.249 393.09 162.707 391.769Z" fill="#FFC2C3"/>
<path d="M144.119 374.644C145.577 373.323 145.577 371.182 144.119 369.861C142.66 368.54 140.295 368.54 138.836 369.861C137.378 371.182 137.378 373.323 138.836 374.644C140.295 375.964 142.66 375.964 144.119 374.644Z" fill="#FFC2C3"/>
<path d="M124.947 357.561C126.405 356.24 126.405 354.099 124.947 352.778C123.488 351.457 121.123 351.457 119.664 352.778C118.206 354.099 118.206 356.24 119.664 357.561C121.123 358.881 123.488 358.881 124.947 357.561Z" fill="#FFC2C3"/>
<path d="M106.36 340.456C107.818 339.136 107.818 336.994 106.36 335.674C104.901 334.353 102.536 334.353 101.077 335.674C99.6184 336.994 99.6184 339.136 101.077 340.456C102.536 341.777 104.901 341.777 106.36 340.456Z" fill="#FFC2C3"/>
<path d="M87.186 323.352C88.6447 322.031 88.6447 319.89 87.186 318.57C85.7273 317.249 83.3622 317.249 81.9035 318.57C80.4448 319.89 80.4448 322.031 81.9035 323.352C83.3622 324.673 85.7273 324.673 87.186 323.352Z" fill="#FFC2C3"/>
<path d="M68.6 306.265C70.0587 304.945 70.0587 302.804 68.6 301.483C67.1413 300.162 64.7763 300.162 63.3176 301.483C61.8589 302.804 61.8589 304.945 63.3176 306.265C64.7763 307.586 67.1413 307.586 68.6 306.265Z" fill="#FFC2C3"/>
<path d="M49.4263 289.16C50.885 287.84 50.885 285.699 49.4263 284.378C47.9676 283.057 45.6026 283.057 44.1439 284.378C42.6852 285.699 42.6852 287.84 44.1439 289.16C45.6026 290.481 47.9676 290.481 49.4263 289.16Z" fill="#FFC2C3"/>
<path d="M30.8379 272.04C32.2966 270.719 32.2967 268.578 30.838 267.257C29.3793 265.936 27.0142 265.936 25.5555 267.257C24.0968 268.578 24.0968 270.719 25.5555 272.04C27.0142 273.36 29.3792 273.36 30.8379 272.04Z" fill="#FFC2C3"/>
<path d="M11.6656 254.95C13.1243 253.63 13.1243 251.488 11.6656 250.168C10.2069 248.847 7.84186 248.847 6.38316 250.168C4.92446 251.488 4.92444 253.63 6.38314 254.95C7.84184 256.271 10.2069 256.271 11.6656 254.95Z" fill="#FFC2C3"/>
<path d="M176.485 379.421C177.944 378.1 177.944 375.959 176.485 374.638C175.026 373.318 172.661 373.318 171.202 374.638C169.744 375.959 169.744 378.1 171.202 379.421C172.661 380.741 175.026 380.741 176.485 379.421Z" fill="#FFC2C3"/>
<path d="M157.898 362.316C159.356 360.995 159.356 358.854 157.898 357.533C156.439 356.212 154.074 356.212 152.615 357.533C151.157 358.854 151.157 360.995 152.615 362.316C154.074 363.636 156.439 363.636 157.898 362.316Z" fill="#FFC2C3"/>
<path d="M138.722 345.191C140.18 343.871 140.18 341.729 138.722 340.409C137.263 339.088 134.898 339.088 133.439 340.409C131.98 341.729 131.98 343.871 133.439 345.191C134.898 346.512 137.263 346.512 138.722 345.191Z" fill="#FFC2C3"/>
<path d="M120.132 328.067C121.591 326.746 121.591 324.605 120.132 323.284C118.674 321.964 116.309 321.964 114.85 323.284C113.391 324.605 113.391 326.746 114.85 328.067C116.309 329.388 118.674 329.388 120.132 328.067Z" fill="#FFC2C3"/>
<path d="M100.959 310.964C102.417 309.643 102.417 307.502 100.959 306.181C99.5 304.861 97.135 304.861 95.6763 306.181C94.2175 307.502 94.2175 309.643 95.6763 310.964C97.135 312.285 99.5 312.285 100.959 310.964Z" fill="#FFC2C3"/>
<path d="M82.3736 293.877C83.8323 292.556 83.8323 290.415 82.3736 289.095C80.9149 287.774 78.5499 287.774 77.0912 289.095C75.6325 290.415 75.6325 292.556 77.0912 293.877C78.5499 295.198 80.9149 295.198 82.3736 293.877Z" fill="#FFC2C3"/>
<path d="M63.2025 276.79C64.6612 275.469 64.6612 273.328 63.2025 272.007C61.7438 270.687 59.3787 270.687 57.92 272.007C56.4613 273.328 56.4613 275.469 57.92 276.79C59.3787 278.111 61.7438 278.111 63.2025 276.79Z" fill="#FFC2C3"/>
<path d="M44.6153 259.685C46.074 258.364 46.074 256.223 44.6153 254.903C43.1566 253.582 40.7916 253.582 39.3329 254.903C37.8742 256.223 37.8742 258.364 39.3329 259.685C40.7916 261.006 43.1566 261.006 44.6153 259.685Z" fill="#FFC2C3"/>
<path d="M25.4417 242.58C26.9004 241.259 26.9004 239.118 25.4417 237.797C23.983 236.477 21.618 236.477 20.1593 237.797C18.7006 239.118 18.7006 241.259 20.1593 242.58C21.618 243.901 23.983 243.901 25.4417 242.58Z" fill="#FFC2C3"/>
<path d="M6.85204 225.461C8.31075 224.14 8.31073 221.999 6.85203 220.678C5.39333 219.358 3.02832 219.358 1.56962 220.678C0.110921 221.999 0.110921 224.14 1.56962 225.461C3.02832 226.782 5.39334 226.782 6.85204 225.461Z" fill="#FFC2C3"/>
<path d="M190.548 366.74C192.007 365.42 192.007 363.279 190.548 361.958C189.089 360.637 186.724 360.637 185.266 361.958C183.807 363.279 183.807 365.42 185.266 366.74C186.724 368.061 189.089 368.061 190.548 366.74Z" fill="#FFC2C3"/>
<path d="M171.668 349.902C173.126 348.582 173.126 346.44 171.668 345.12C170.209 343.799 167.844 343.799 166.385 345.12C164.926 346.44 164.926 348.582 166.385 349.902C167.844 351.223 170.209 351.223 171.668 349.902Z" fill="#FFC2C3"/>
<path d="M152.79 332.554C154.249 331.234 154.249 329.092 152.79 327.772C151.332 326.451 148.967 326.451 147.508 327.772C146.049 329.092 146.049 331.234 147.508 332.554C148.967 333.875 151.332 333.875 152.79 332.554Z" fill="#FFC2C3"/>
<path d="M133.617 315.45C135.075 314.129 135.075 311.988 133.617 310.668C132.158 309.347 129.793 309.347 128.334 310.668C126.876 311.988 126.876 314.129 128.334 315.45C129.793 316.771 132.158 316.771 133.617 315.45Z" fill="#FFC2C3"/>
<path d="M114.739 298.631C116.198 297.31 116.198 295.169 114.739 293.848C113.28 292.528 110.915 292.528 109.457 293.848C107.998 295.169 107.998 297.31 109.457 298.631C110.915 299.952 113.28 299.952 114.739 298.631Z" fill="#FFC2C3"/>
<path d="M95.8559 281.242C97.3146 279.921 97.3146 277.78 95.8559 276.459C94.3972 275.139 92.0322 275.139 90.5735 276.459C89.1148 277.78 89.1147 279.921 90.5734 281.242C92.0321 282.563 94.3972 282.563 95.8559 281.242Z" fill="#FFC2C3"/>
<path d="M76.9782 264.42C78.4369 263.099 78.4369 260.958 76.9782 259.637C75.5195 258.317 73.1545 258.317 71.6958 259.637C70.2371 260.958 70.2371 263.099 71.6958 264.42C73.1545 265.741 75.5195 265.741 76.9782 264.42Z" fill="#FFC2C3"/>
<path d="M58.0946 247.033C59.5533 245.713 59.5533 243.571 58.0946 242.251C56.6359 240.93 54.2709 240.93 52.8122 242.251C51.3535 243.571 51.3535 245.713 52.8122 247.033C54.2709 248.354 56.6359 248.354 58.0946 247.033Z" fill="#FFC2C3"/>
<path d="M39.2115 230.18C40.6702 228.859 40.6702 226.718 39.2115 225.397C37.7528 224.077 35.3878 224.077 33.9291 225.397C32.4704 226.718 32.4704 228.859 33.9291 230.18C35.3878 231.501 37.7528 231.501 39.2115 230.18Z" fill="#FFC2C3"/>
<path d="M20.3367 212.839C21.7954 211.519 21.7954 209.377 20.3367 208.057C18.878 206.736 16.513 206.736 15.0543 208.057C13.5956 209.377 13.5956 211.519 15.0543 212.839C16.513 214.16 18.878 214.16 20.3367 212.839Z" fill="#FFC2C3"/>
<path d="M1.45368 195.987C2.91238 194.666 2.91238 192.525 1.45368 191.204C-0.00502151 189.883 -2.37005 189.883 -3.82875 191.204C-5.28746 192.525 -5.28746 194.666 -3.82875 195.987C-2.37005 197.307 -0.00502151 197.307 1.45368 195.987Z" fill="#FFC2C3"/>
<path d="M204.326 354.392C205.785 353.072 205.785 350.93 204.326 349.61C202.868 348.289 200.503 348.289 199.044 349.61C197.585 350.93 197.585 353.072 199.044 354.392C200.503 355.713 202.868 355.713 204.326 354.392Z" fill="#FFC2C3"/>
<path d="M185.152 337.287C186.611 335.967 186.611 333.825 185.152 332.505C183.694 331.184 181.329 331.184 179.87 332.505C178.411 333.825 178.411 335.967 179.87 337.287C181.329 338.608 183.694 338.608 185.152 337.287Z" fill="#FFC2C3"/>
<path d="M166.566 320.184C168.024 318.863 168.024 316.722 166.566 315.401C165.107 314.081 162.742 314.081 161.283 315.401C159.824 316.722 159.824 318.863 161.283 320.184C162.742 321.505 165.107 321.505 166.566 320.184Z" fill="#FFC2C3"/>
<path d="M147.392 303.08C148.85 301.759 148.85 299.618 147.392 298.297C145.933 296.976 143.568 296.976 142.109 298.297C140.65 299.618 140.65 301.759 142.109 303.08C143.568 304.4 145.933 304.4 147.392 303.08Z" fill="#FFC2C3"/>
<path d="M128.805 285.977C130.263 284.656 130.263 282.515 128.805 281.194C127.346 279.873 124.981 279.873 123.522 281.194C122.064 282.515 122.064 284.656 123.522 285.977C124.981 287.297 127.346 287.297 128.805 285.977Z" fill="#FFC2C3"/>
<path d="M109.631 268.871C111.089 267.551 111.089 265.409 109.631 264.089C108.172 262.768 105.807 262.768 104.348 264.089C102.89 265.409 102.89 267.551 104.348 268.871C105.807 270.192 108.172 270.192 109.631 268.871Z" fill="#FFC2C3"/>
<path d="M91.0477 251.784C92.5064 250.463 92.5064 248.322 91.0477 247.001C89.589 245.681 87.2239 245.681 85.7652 247.001C84.3065 248.322 84.3065 250.463 85.7652 251.784C87.2239 253.105 89.589 253.105 91.0477 251.784Z" fill="#FFC2C3"/>
<path d="M71.8699 234.663C73.3286 233.342 73.3286 231.201 71.8699 229.88C70.4112 228.56 68.0462 228.56 66.5875 229.88C65.1288 231.201 65.1288 233.342 66.5875 234.663C68.0462 235.984 70.4112 235.984 71.8699 234.663Z" fill="#FFC2C3"/>
<path d="M53.2869 217.574C54.7456 216.253 54.7456 214.112 53.2869 212.791C51.8282 211.47 49.4632 211.47 48.0045 212.791C46.5458 214.112 46.5458 216.253 48.0045 217.574C49.4632 218.894 51.8282 218.894 53.2869 217.574Z" fill="#FFC2C3"/>
<path d="M34.1091 200.455C35.5678 199.134 35.5678 196.993 34.1091 195.672C32.6504 194.351 30.2854 194.351 28.8267 195.672C27.368 196.993 27.368 199.134 28.8267 200.455C30.2854 201.775 32.6504 201.775 34.1091 200.455Z" fill="#FFC2C3"/>
<path d="M15.522 183.351C16.9807 182.03 16.9807 179.889 15.522 178.568C14.0633 177.247 11.6983 177.247 10.2396 178.568C8.7809 179.889 8.7809 182.03 10.2396 183.351C11.6983 184.671 14.0633 184.671 15.522 183.351Z" fill="#FFC2C3"/>
<path d="M218.106 342.044C219.565 340.724 219.565 338.582 218.106 337.262C216.647 335.941 214.282 335.941 212.823 337.262C211.365 338.582 211.365 340.724 212.823 342.044C214.282 343.365 216.647 343.365 218.106 342.044Z" fill="#FFC2C3"/>
<path d="M198.928 324.918C200.386 323.597 200.386 321.456 198.928 320.136C197.469 318.815 195.104 318.815 193.645 320.136C192.186 321.456 192.186 323.597 193.645 324.918C195.104 326.239 197.469 326.239 198.928 324.918Z" fill="#FFC2C3"/>
<path d="M180.34 307.814C181.799 306.493 181.799 304.352 180.34 303.031C178.882 301.711 176.517 301.711 175.058 303.031C173.599 304.352 173.599 306.493 175.058 307.814C176.517 309.135 178.882 309.135 180.34 307.814Z" fill="#FFC2C3"/>
<path d="M161.162 290.69C162.621 289.37 162.621 287.228 161.162 285.908C159.704 284.587 157.339 284.587 155.88 285.908C154.421 287.228 154.421 289.37 155.88 290.69C157.339 292.011 159.704 292.011 161.162 290.69Z" fill="#FFC2C3"/>
<path d="M142.575 273.587C144.034 272.267 144.034 270.125 142.575 268.805C141.117 267.484 138.752 267.484 137.293 268.805C135.834 270.125 135.834 272.267 137.293 273.587C138.752 274.908 141.117 274.908 142.575 273.587Z" fill="#FFC2C3"/>
<path d="M123.406 256.501C124.865 255.181 124.865 253.039 123.406 251.719C121.947 250.398 119.582 250.398 118.124 251.719C116.665 253.039 116.665 255.181 118.124 256.501C119.582 257.822 121.947 257.822 123.406 256.501Z" fill="#FFC2C3"/>
<path d="M104.815 239.381C106.273 238.06 106.273 235.919 104.815 234.598C103.356 233.277 100.991 233.277 99.5323 234.598C98.0736 235.919 98.0736 238.06 99.5323 239.381C100.991 240.701 103.356 240.701 104.815 239.381Z" fill="#FFC2C3"/>
<path d="M85.6452 222.293C87.1039 220.972 87.1039 218.831 85.6452 217.511C84.1865 216.19 81.8215 216.19 80.3628 217.51C78.9041 218.831 78.9041 220.972 80.3628 222.293C81.8215 223.614 84.1865 223.614 85.6452 222.293Z" fill="#FFC2C3"/>
<path d="M66.7601 204.908C68.2188 203.587 68.2188 201.446 66.7601 200.125C65.3014 198.804 62.9363 198.804 61.4776 200.125C60.0189 201.446 60.0189 203.587 61.4776 204.908C62.9363 206.228 65.3014 206.228 66.7601 204.908Z" fill="#FFC2C3"/>
<path d="M47.8839 188.084C49.3426 186.764 49.3427 184.623 47.884 183.302C46.4253 181.981 44.0602 181.981 42.6015 183.302C41.1428 184.623 41.1428 186.764 42.6015 188.084C44.0602 189.405 46.4252 189.405 47.8839 188.084Z" fill="#FFC2C3"/>
<path d="M29.0038 170.715C30.4625 169.394 30.4625 167.253 29.0038 165.932C27.5451 164.612 25.18 164.612 23.7213 165.932C22.2626 167.253 22.2626 169.394 23.7213 170.715C25.18 172.036 27.5451 172.036 29.0038 170.715Z" fill="#FFC2C3"/>
<path d="M10.1236 153.877C11.5823 152.556 11.5823 150.415 10.1236 149.094C8.66489 147.773 6.29987 147.773 4.84117 149.094C3.38247 150.415 3.38246 152.556 4.84116 153.877C6.29986 155.197 8.66489 155.197 10.1236 153.877Z" fill="#FFC2C3"/>
<path d="M231.578 329.363C233.036 328.042 233.036 325.901 231.578 324.581C230.119 323.26 227.754 323.26 226.295 324.581C224.837 325.901 224.837 328.042 226.295 329.363C227.754 330.684 230.119 330.684 231.578 329.363Z" fill="#FFC2C3"/>
<path d="M212.991 312.261C214.45 310.94 214.45 308.799 212.991 307.478C211.532 306.157 209.167 306.157 207.709 307.478C206.25 308.799 206.25 310.94 207.709 312.261C209.167 313.581 211.532 313.581 212.991 312.261Z" fill="#FFC2C3"/>
<path d="M193.822 295.178C195.281 293.857 195.281 291.716 193.822 290.395C192.364 289.075 189.999 289.075 188.54 290.395C187.081 291.716 187.081 293.857 188.54 295.178C189.999 296.498 192.364 296.498 193.822 295.178Z" fill="#FFC2C3"/>
<path d="M175.236 278.074C176.694 276.754 176.694 274.612 175.236 273.292C173.777 271.971 171.412 271.971 169.953 273.292C168.494 274.612 168.494 276.754 169.953 278.074C171.412 279.395 173.777 279.395 175.236 278.074Z" fill="#FFC2C3"/>
<path d="M156.061 260.97C157.52 259.649 157.52 257.508 156.061 256.187C154.603 254.866 152.238 254.866 150.779 256.187C149.32 257.508 149.32 259.649 150.779 260.97C152.238 262.29 154.603 262.29 156.061 260.97Z" fill="#FFC2C3"/>
<path d="M137.475 243.865C138.933 242.545 138.933 240.403 137.475 239.083C136.016 237.762 133.651 237.762 132.192 239.083C130.734 240.403 130.734 242.545 132.192 243.865C133.651 245.186 136.016 245.186 137.475 243.865Z" fill="#FFC2C3"/>
<path d="M118.301 226.761C119.759 225.44 119.759 223.299 118.301 221.978C116.842 220.658 114.477 220.658 113.018 221.978C111.56 223.299 111.56 225.44 113.018 226.761C114.477 228.082 116.842 228.082 118.301 226.761Z" fill="#FFC2C3"/>
<path d="M99.4147 209.906C100.873 208.586 100.873 206.444 99.4147 205.124C97.956 203.803 95.5909 203.803 94.1322 205.124C92.6735 206.444 92.6735 208.586 94.1322 209.906C95.5909 211.227 97.956 211.227 99.4147 209.906Z" fill="#FFC2C3"/>
<path d="M80.5398 192.553C81.9986 191.232 81.9986 189.091 80.5398 187.77C79.0811 186.449 76.7161 186.45 75.2574 187.77C73.7987 189.091 73.7987 191.232 75.2574 192.553C76.7161 193.873 79.0811 193.873 80.5398 192.553Z" fill="#FFC2C3"/>
<path d="M61.6647 175.728C63.1234 174.407 63.1234 172.266 61.6647 170.945C60.206 169.625 57.8409 169.625 56.3822 170.945C54.9235 172.266 54.9235 174.407 56.3822 175.728C57.8409 177.049 60.206 177.049 61.6647 175.728Z" fill="#FFC2C3"/>
<path d="M42.779 158.345C44.2377 157.024 44.2377 154.883 42.779 153.562C41.3203 152.242 38.9553 152.242 37.4966 153.562C36.0379 154.883 36.0379 157.024 37.4966 158.345C38.9553 159.666 41.3203 159.666 42.779 158.345Z" fill="#FFC2C3"/>
<path d="M23.8985 141.506C25.3572 140.185 25.3572 138.044 23.8985 136.723C22.4398 135.403 20.0748 135.403 18.6161 136.723C17.1574 138.044 17.1574 140.185 18.6161 141.506C20.0748 142.827 22.4398 142.827 23.8985 141.506Z" fill="#FFC2C3"/>
<path d="M5.01824 124.136C6.47694 122.815 6.47696 120.674 5.01825 119.353C3.55955 118.033 1.19452 118.033 -0.264179 119.353C-1.72288 120.674 -1.72288 122.815 -0.264179 124.136C1.19452 125.457 3.55954 125.457 5.01824 124.136Z" fill="#FFC2C3"/>
<path d="M245.352 316.994C246.811 315.673 246.811 313.532 245.352 312.211C243.894 310.891 241.529 310.891 240.07 312.211C238.611 313.532 238.611 315.673 240.07 316.994C241.529 318.315 243.894 318.315 245.352 316.994Z" fill="#FFC2C3"/>
<path d="M226.771 299.912C228.23 298.591 228.23 296.45 226.771 295.129C225.312 293.808 222.947 293.808 221.489 295.129C220.03 296.45 220.03 298.591 221.489 299.912C222.947 301.232 225.312 301.232 226.771 299.912Z" fill="#FFC2C3"/>
<path d="M207.597 282.806C209.056 281.486 209.056 279.344 207.597 278.024C206.138 276.703 203.773 276.703 202.315 278.024C200.856 279.344 200.856 281.486 202.315 282.806C203.773 284.127 206.138 284.127 207.597 282.806Z" fill="#FFC2C3"/>
<path d="M189.01 265.704C190.469 264.383 190.469 262.242 189.01 260.921C187.552 259.6 185.187 259.6 183.728 260.921C182.269 262.242 182.269 264.383 183.728 265.704C185.187 267.024 187.552 267.024 189.01 265.704Z" fill="#FFC2C3"/>
<path d="M169.837 248.599C171.295 247.279 171.295 245.137 169.837 243.817C168.378 242.496 166.013 242.496 164.554 243.817C163.096 245.137 163.096 247.279 164.554 248.599C166.013 249.92 168.378 249.92 169.837 248.599Z" fill="#FFC2C3"/>
<path d="M151.256 231.512C152.715 230.192 152.715 228.05 151.256 226.73C149.797 225.409 147.432 225.409 145.973 226.73C144.515 228.05 144.515 230.192 145.973 231.512C147.432 232.833 149.797 232.833 151.256 231.512Z" fill="#FFC2C3"/>
<path d="M132.082 214.408C133.54 213.087 133.54 210.946 132.082 209.625C130.623 208.304 128.258 208.304 126.799 209.625C125.341 210.946 125.341 213.087 126.799 214.408C128.258 215.728 130.623 215.728 132.082 214.408Z" fill="#FFC2C3"/>
<path d="M113.483 197.272C114.942 195.951 114.942 193.81 113.483 192.489C112.025 191.168 109.66 191.168 108.201 192.489C106.742 193.81 106.742 195.951 108.201 197.272C109.66 198.592 112.025 198.592 113.483 197.272Z" fill="#FFC2C3"/>
<path d="M94.3093 180.168C95.768 178.847 95.768 176.706 94.3093 175.385C92.8506 174.065 90.4856 174.065 89.0269 175.385C87.5682 176.706 87.5682 178.847 89.0269 180.168C90.4856 181.489 92.8506 181.489 94.3093 180.168Z" fill="#FFC2C3"/>
<path d="M75.7222 163.065C77.1809 161.744 77.1809 159.603 75.7222 158.282C74.2635 156.961 71.8985 156.961 70.4398 158.282C68.9811 159.603 68.9811 161.744 70.4398 163.065C71.8985 164.385 74.2635 164.385 75.7222 163.065Z" fill="#FFC2C3"/>
<path d="M56.5539 145.974C58.0126 144.653 58.0126 142.512 56.5539 141.191C55.0952 139.87 52.7302 139.87 51.2715 141.191C49.8128 142.512 49.8128 144.653 51.2715 145.974C52.7302 147.294 55.0952 147.294 56.5539 145.974Z" fill="#FFC2C3"/>
<path d="M37.9614 128.858C39.4201 127.537 39.42 125.396 37.9613 124.075C36.5026 122.755 34.1376 122.755 32.6789 124.075C31.2202 125.396 31.2202 127.537 32.6789 128.858C34.1376 130.179 36.5027 130.179 37.9614 128.858Z" fill="#FFC2C3"/>
<path d="M18.7993 111.777C20.258 110.456 20.2581 108.315 18.7994 106.994C17.3407 105.674 14.9756 105.674 13.5169 106.994C12.0582 108.315 12.0582 110.456 13.5169 111.777C14.9756 113.098 17.3406 113.098 18.7993 111.777Z" fill="#FFC2C3"/>
<path d="M0.206331 94.6618C1.66503 93.3411 1.66504 91.1998 0.206337 89.8791C-1.25236 88.5585 -3.61739 88.5585 -5.07609 89.8792C-6.53479 91.1998 -6.53478 93.3411 -5.07607 94.6618C-3.61737 95.9824 -1.25237 95.9825 0.206331 94.6618Z" fill="#FFC2C3"/>
<path d="M259.14 304.668C260.599 303.347 260.599 301.206 259.14 299.885C257.681 298.564 255.316 298.564 253.857 299.885C252.399 301.206 252.399 303.347 253.857 304.668C255.316 305.988 257.681 305.988 259.14 304.668Z" fill="#FFC2C3"/>
<path d="M240.547 287.542C242.005 286.221 242.005 284.08 240.547 282.759C239.088 281.438 236.723 281.438 235.264 282.759C233.805 284.08 233.805 286.221 235.264 287.542C236.723 288.862 239.088 288.862 240.547 287.542Z" fill="#FFC2C3"/>
<path d="M221.379 270.456C222.838 269.136 222.838 266.994 221.379 265.674C219.92 264.353 217.555 264.353 216.097 265.674C214.638 266.994 214.638 269.136 216.097 270.456C217.555 271.777 219.92 271.777 221.379 270.456Z" fill="#FFC2C3"/>
<path d="M202.792 253.352C204.251 252.032 204.251 249.891 202.792 248.57C201.334 247.249 198.969 247.249 197.51 248.57C196.051 249.891 196.051 252.032 197.51 253.352C198.969 254.673 201.334 254.673 202.792 253.352Z" fill="#FFC2C3"/>
<path d="M183.612 236.229C185.071 234.908 185.071 232.767 183.612 231.446C182.153 230.126 179.788 230.126 178.33 231.446C176.871 232.767 176.871 234.908 178.33 236.229C179.788 237.55 182.153 237.55 183.612 236.229Z" fill="#FFC2C3"/>
<path d="M164.738 218.877C166.197 217.556 166.197 215.415 164.738 214.094C163.279 212.773 160.914 212.773 159.456 214.094C157.997 215.415 157.997 217.556 159.456 218.877C160.914 220.197 163.279 220.197 164.738 218.877Z" fill="#FFC2C3"/>
<path d="M145.857 202.037C147.316 200.716 147.316 198.575 145.857 197.254C144.399 195.934 142.034 195.934 140.575 197.254C139.116 198.575 139.116 200.716 140.575 202.037C142.034 203.358 144.399 203.358 145.857 202.037Z" fill="#FFC2C3"/>
<path d="M126.971 184.651C128.429 183.33 128.429 181.189 126.971 179.868C125.512 178.547 123.147 178.547 121.688 179.868C120.229 181.189 120.229 183.33 121.688 184.651C123.147 185.971 125.512 185.971 126.971 184.651Z" fill="#FFC2C3"/>
<path d="M108.083 167.797C109.542 166.477 109.542 164.335 108.083 163.015C106.625 161.694 104.26 161.694 102.801 163.015C101.342 164.335 101.342 166.477 102.801 167.797C104.26 169.118 106.625 169.118 108.083 167.797Z" fill="#FFC2C3"/>
<path d="M89.2098 150.443C90.6685 149.122 90.6685 146.981 89.2098 145.66C87.7511 144.34 85.3861 144.34 83.9274 145.66C82.4687 146.981 82.4687 149.122 83.9274 150.443C85.3861 151.764 87.7511 151.764 89.2098 150.443Z" fill="#FFC2C3"/>
<path d="M70.3292 133.604C71.7879 132.283 71.7879 130.142 70.3292 128.821C68.8705 127.501 66.5054 127.501 65.0467 128.821C63.588 130.142 63.588 132.283 65.0467 133.604C66.5054 134.925 68.8705 134.925 70.3292 133.604Z" fill="#FFC2C3"/>
<path d="M51.4752 116.224C52.9339 114.903 52.9337 112.762 51.4748 111.441C50.0159 110.121 47.6507 110.121 46.192 111.442C44.7333 112.762 44.7335 114.904 46.1924 116.225C47.6513 117.545 50.0165 117.545 51.4752 116.224Z" fill="#FFC2C3"/>
<path d="M32.575 99.4067C34.0337 98.086 34.0337 95.9447 32.575 94.6241C31.1163 93.3034 28.7513 93.3034 27.2926 94.6241C25.8339 95.9448 25.8339 98.086 27.2926 99.4067C28.7513 100.727 31.1163 100.727 32.575 99.4067Z" fill="#FFC2C3"/>
<path d="M13.6882 82.0258C15.1469 80.7051 15.1469 78.5638 13.6882 77.2431C12.2295 75.9225 9.86444 75.9225 8.40574 77.2431C6.94704 78.5638 6.94704 80.7051 8.40574 82.0258C9.86444 83.3465 12.2295 83.3465 13.6882 82.0258Z" fill="#FFC2C3"/>
<path d="M273.202 292.009C274.661 290.689 274.661 288.547 273.202 287.227C271.743 285.906 269.378 285.906 267.92 287.227C266.461 288.547 266.461 290.689 267.92 292.009C269.378 293.33 271.743 293.33 273.202 292.009Z" fill="#FFC2C3"/>
<path d="M254.028 274.907C255.487 273.586 255.487 271.445 254.028 270.124C252.57 268.803 250.205 268.803 248.746 270.124C247.287 271.445 247.287 273.586 248.746 274.907C250.205 276.227 252.57 276.227 254.028 274.907Z" fill="#FFC2C3"/>
<path d="M235.441 257.801C236.9 256.481 236.9 254.339 235.441 253.019C233.982 251.698 231.617 251.698 230.159 253.019C228.7 254.339 228.7 256.481 230.159 257.801C231.617 259.122 233.982 259.122 235.441 257.801Z" fill="#FFC2C3"/>
<path d="M216.26 240.678C217.719 239.357 217.719 237.216 216.26 235.895C214.801 234.575 212.436 234.574 210.978 235.895C209.519 237.216 209.519 239.357 210.978 240.678C212.436 241.998 214.801 241.998 216.26 240.678Z" fill="#FFC2C3"/>
<path d="M197.68 223.593C199.139 222.272 199.139 220.131 197.68 218.81C196.222 217.49 193.857 217.49 192.398 218.81C190.939 220.131 190.939 222.272 192.398 223.593C193.857 224.914 196.222 224.914 197.68 223.593Z" fill="#FFC2C3"/>
<path d="M178.506 206.489C179.965 205.168 179.965 203.027 178.506 201.706C177.048 200.385 174.683 200.385 173.224 201.706C171.765 203.027 171.765 205.168 173.224 206.489C174.683 207.809 177.048 207.809 178.506 206.489Z" fill="#FFC2C3"/>
<path d="M159.919 189.384C161.378 188.063 161.378 185.922 159.919 184.601C158.46 183.28 156.095 183.28 154.637 184.601C153.178 185.922 153.178 188.063 154.637 189.384C156.095 190.704 158.46 190.704 159.919 189.384Z" fill="#FFC2C3"/>
<path d="M140.753 172.296C142.212 170.976 142.212 168.834 140.753 167.514C139.294 166.193 136.929 166.193 135.471 167.514C134.012 168.834 134.012 170.976 135.471 172.296C136.929 173.617 139.294 173.617 140.753 172.296Z" fill="#FFC2C3"/>
<path d="M122.159 155.176C123.617 153.856 123.617 151.714 122.159 150.394C120.7 149.073 118.335 149.073 116.876 150.394C115.418 151.714 115.418 153.856 116.876 155.176C118.335 156.497 120.7 156.497 122.159 155.176Z" fill="#FFC2C3"/>
<path d="M102.992 138.086C104.451 136.765 104.451 134.624 102.992 133.303C101.533 131.983 99.1684 131.983 97.7097 133.303C96.251 134.624 96.251 136.765 97.7097 138.086C99.1684 139.407 101.533 139.407 102.992 138.086Z" fill="#FFC2C3"/>
<path d="M84.3979 120.968C85.8566 119.647 85.8566 117.506 84.3979 116.185C82.9392 114.865 80.5742 114.865 79.1155 116.185C77.6568 117.506 77.6568 119.647 79.1155 120.968C80.5742 122.289 82.9392 122.289 84.3979 120.968Z" fill="#FFC2C3"/>
<path d="M65.2239 103.864C66.6826 102.543 66.6826 100.402 65.2239 99.0811C63.7652 97.7604 61.4002 97.7604 59.9414 99.0811C58.4827 100.402 58.4827 102.543 59.9414 103.864C61.4001 105.184 63.7652 105.184 65.2239 103.864Z" fill="#FFC2C3"/>
<path d="M46.3437 87.0251C47.8024 85.7044 47.8024 83.5632 46.3437 82.2425C44.885 80.9218 42.52 80.9218 41.0613 82.2425C39.6026 83.5632 39.6026 85.7044 41.0613 87.0251C42.52 88.3458 44.885 88.3458 46.3437 87.0251Z" fill="#FFC2C3"/>
<path d="M27.4705 69.6656C28.9292 68.3449 28.9292 66.2037 27.4705 64.883C26.0118 63.5623 23.6468 63.5623 22.1881 64.883C20.7294 66.2037 20.7294 68.3449 22.1881 69.6656C23.6468 70.9863 26.0118 70.9863 27.4705 69.6656Z" fill="#FFC2C3"/>
<path d="M8.58286 52.8169C10.0416 51.4962 10.0416 49.3549 8.58286 48.0342C7.12416 46.7136 4.75914 46.7136 3.30044 48.0342C1.84173 49.3549 1.84175 51.4962 3.30045 52.8168C4.75915 54.1375 7.12416 54.1375 8.58286 52.8169Z" fill="#FFC2C3"/>
<path d="M286.969 279.617C288.428 278.297 288.428 276.155 286.969 274.835C285.511 273.514 283.146 273.514 281.687 274.835C280.228 276.155 280.228 278.297 281.687 279.617C283.146 280.938 285.511 280.938 286.969 279.617Z" fill="#FFC2C3"/>
<path d="M267.804 262.535C269.262 261.215 269.262 259.073 267.804 257.753C266.345 256.432 263.98 256.432 262.521 257.753C261.062 259.073 261.062 261.215 262.521 262.535C263.98 263.856 266.345 263.856 267.804 262.535Z" fill="#FFC2C3"/>
<path d="M249.209 245.411C250.667 244.09 250.667 241.949 249.209 240.628C247.75 239.307 245.385 239.307 243.926 240.628C242.467 241.949 242.467 244.09 243.926 245.411C245.385 246.731 247.75 246.731 249.209 245.411Z" fill="#FFC2C3"/>
<path d="M230.051 228.346C231.509 227.025 231.509 224.884 230.051 223.564C228.592 222.243 226.227 222.243 224.768 223.564C223.31 224.884 223.31 227.026 224.768 228.346C226.227 229.667 228.592 229.667 230.051 228.346Z" fill="#FFC2C3"/>
<path d="M211.456 211.223C212.914 209.902 212.914 207.761 211.456 206.44C209.997 205.119 207.632 205.119 206.173 206.44C204.715 207.761 204.714 209.902 206.173 211.223C207.632 212.543 209.997 212.543 211.456 211.223Z" fill="#FFC2C3"/>
<path d="M192.282 194.118C193.74 192.797 193.74 190.656 192.282 189.335C190.823 188.014 188.458 188.014 186.999 189.335C185.54 190.656 185.54 192.797 186.999 194.118C188.458 195.438 190.823 195.438 192.282 194.118Z" fill="#FFC2C3"/>
<path d="M173.687 176.998C175.145 175.677 175.145 173.536 173.687 172.215C172.228 170.894 169.863 170.894 168.404 172.215C166.945 173.536 166.945 175.677 168.404 176.998C169.863 178.318 172.228 178.318 173.687 176.998Z" fill="#FFC2C3"/>
<path d="M154.529 159.926C155.988 158.605 155.988 156.464 154.529 155.143C153.07 153.823 150.705 153.823 149.247 155.143C147.788 156.464 147.788 158.605 149.247 159.926C150.705 161.247 153.07 161.247 154.529 159.926Z" fill="#FFC2C3"/>
<path d="M135.942 142.821C137.401 141.501 137.401 139.359 135.942 138.039C134.484 136.718 132.119 136.718 130.66 138.039C129.201 139.359 129.201 141.501 130.66 142.821C132.119 144.142 134.484 144.142 135.942 142.821Z" fill="#FFC2C3"/>
<path d="M116.768 125.716C118.227 124.395 118.227 122.254 116.768 120.933C115.31 119.612 112.945 119.612 111.486 120.933C110.027 122.254 110.027 124.395 111.486 125.716C112.945 127.036 115.31 127.036 116.768 125.716Z" fill="#FFC2C3"/>
<path d="M98.1728 108.598C99.6315 107.277 99.6315 105.136 98.1728 103.815C96.7141 102.494 94.3491 102.494 92.8904 103.815C91.4317 105.136 91.4317 107.277 92.8904 108.598C94.3491 109.918 96.7141 109.918 98.1728 108.598Z" fill="#FFC2C3"/>
<path d="M78.9992 91.4934C80.4579 90.1727 80.4579 88.0314 78.9992 86.7108C77.5405 85.3901 75.1755 85.3901 73.7168 86.7108C72.2581 88.0314 72.2581 90.1727 73.7168 91.4934C75.1755 92.814 77.5405 92.8141 78.9992 91.4934Z" fill="#FFC2C3"/>
<path d="M60.1106 74.1125C61.5693 72.7918 61.5693 70.6506 60.1106 69.3299C58.6519 68.0092 56.2869 68.0092 54.8282 69.3299C53.3695 70.6506 53.3695 72.7918 54.8282 74.1125C56.2869 75.4332 58.6519 75.4332 60.1106 74.1125Z" fill="#FFC2C3"/>
<path d="M41.2463 57.2949C42.705 55.9742 42.705 53.833 41.2463 52.5123C39.7876 51.1916 37.4225 51.1916 35.9638 52.5123C34.5051 53.833 34.5051 55.9743 35.9638 57.2949C37.4225 58.6156 39.7876 58.6156 41.2463 57.2949Z" fill="#FFC2C3"/>
<path d="M22.366 39.9246C23.8247 38.6039 23.8247 36.4626 22.366 35.1419C20.9073 33.8213 18.5423 33.8213 17.0836 35.142C15.6249 36.4626 15.6249 38.6039 17.0836 39.9246C18.5423 41.2453 20.9073 41.2453 22.366 39.9246Z" fill="#FFC2C3"/>
<path d="M3.47754 23.0766C4.93624 21.7559 4.93624 19.6147 3.47754 18.294C2.01884 16.9733 -0.346188 16.9733 -1.80489 18.294C-3.26359 19.6147 -3.26359 21.7559 -1.80489 23.0766C-0.346192 24.3973 2.01884 24.3973 3.47754 23.0766Z" fill="#FFC2C3"/>
</g>
<defs>
<clipPath id="clip0_0_155">
<rect width="613" height="555" fill="white" transform="translate(-325)"/>
</clipPath>
</defs>
</svg>
